<svg width="200" height="200" viewBox="0 0 200 200" fill="none" xmlns="http://www.w3.org/2000/svg">
<path d="M99.9998 181.633C54.9998 181.633 18.3672 145 18.3672 100C18.3672 55 54.9998 18.3673 99.9998 18.3673C145 18.3673 181.632 55 181.632 100C181.632 145 145 181.633 99.9998 181.633Z" fill="#1976D2"/>
<path d="M86.7345 134.694C85.7141 134.694 84.6936 134.286 83.8773 133.469C82.2447 131.837 82.2447 129.286 83.8773 127.653L114.49 97.0408C116.122 95.4081 118.673 95.4081 120.306 97.0408C121.939 98.6734 121.939 101.224 120.306 102.857L89.6936 133.469C88.7753 134.286 87.7549 134.694 86.7345 134.694Z" fill="white"/>
<path d="M117.347 104.082C116.326 104.082 115.306 103.673 114.49 102.857L83.8773 72.2449C82.2447 70.6123 82.2447 68.0612 83.8773 66.4286C85.51 64.7959 88.061 64.7959 89.6936 66.4286L120.306 97.0408C121.939 98.6735 121.939 101.225 120.306 102.857C119.388 103.673 118.367 104.082 117.347 104.082Z" fill="white"/>
</svg>
