<svg xmlns="http://www.w3.org/2000/svg" width="152" height="152" fill="none" viewBox="0 0 152 152"><circle cx="76" cy="76" r="76" fill="#004098"/><path fill="#fff" d="M110.204 76.0991H108.113V87.8629H110.204V76.0991Z"/><path fill="#fff" d="M106.451 73.3438H104.359V85.5314H106.451V73.3438Z"/><path fill="#fff" d="M98.9616 68.8925H96.8704V82.1929H98.9616V68.8925Z"/><path fill="#fff" d="M102.706 71.0121H100.615V83.7297H102.706V71.0121Z"/><path fill="#fff" d="M95.2171 66.9849H93.1259V80.9742H95.2171V66.9849Z"/><path fill="#fff" d="M91.4636 65.0773H89.3724V79.9145H91.4636V65.0773Z"/><path fill="#fff" d="M87.7191 63.7085H85.6279V79.2396H87.7191V63.7085Z"/><path fill="#fff" d="M113.949 79.2786H111.857V90.4065H113.949V79.2786Z"/><path fill="#fff" d="M117.693 82.7759H115.602V93.1619H117.693V82.7759Z"/><path fill="#fff" d="M121.438 86.6971H119.346V96.2353H121.438V86.6971Z"/><path fill="#fff" d="M125.191 91.0424H123.1V99.4148H125.191V91.0424Z"/><path fill="#fff" d="M128.936 95.8114H126.844V103.018H128.936V95.8114Z"/><path fill="#fff" d="M132.68 100.939H130.589V105.709H132.68V100.939Z"/><path fill="#fff" d="M42.1561 76.0991H44.2473V87.8629H42.1561V76.0991Z"/><path fill="#fff" d="M45.9095 73.3438H48.0007V85.5314H45.9095V73.3438Z"/><path fill="#fff" d="M53.3985 68.8925H55.4897V82.1929H53.3985V68.8925Z"/><path fill="#fff" d="M49.654 71.0121H51.7452V83.7297H49.654V71.0121Z"/><path fill="#fff" d="M57.1431 66.9849H59.2343V80.9742H57.1431V66.9849Z"/><path fill="#fff" d="M60.8965 65.0773H62.9877V79.9145H60.8965V65.0773Z"/><path fill="#fff" d="M64.641 63.7085H66.7322V79.2396H64.641V63.7085Z"/><path fill="#fff" d="M38.4115 79.2786H40.5027V90.4065H38.4115V79.2786Z"/><path fill="#fff" d="M34.667 82.7759H36.7582V93.1619H34.667V82.7759Z"/><path fill="#fff" d="M30.9225 86.6971H33.0137V96.2353H30.9225V86.6971Z"/><path fill="#fff" d="M27.1691 91.0424H29.2603V99.4148H27.1691V91.0424Z"/><path fill="#fff" d="M23.4245 95.8114H25.5157V103.018H23.4245V95.8114Z"/><path fill="#fff" d="M19.68 100.939H21.7712V105.709H19.68V100.939Z"/><path fill="#fff" d="M91.5 121.5H88.5V119.5H85.5V117.474H82.3356L84.202 109.857C84.2304 109.791 84.2588 109.715 84.2588 109.639C84.2588 109.544 84.2304 109.459 84.1925 109.383L82.023 99.5021C82.023 99.4737 82.0135 99.4453 82.0041 99.4168L83.1504 92.8421L83.7662 89.6211L82.7525 84.2968L81.7198 79.2568C81.7198 79.2568 81.7388 79.2095 81.7388 79.1811C81.7388 79.1526 81.7198 79.1432 81.7104 79.1147L83.283 69.1484C83.283 69.1484 83.3114 69.0726 83.3114 69.0347C83.3114 68.9968 83.2925 68.9589 83.283 68.9211C83.283 68.9116 83.283 68.8926 83.2735 68.8832C83.2735 68.8547 83.2735 68.8263 83.2546 68.7979L81.4167 58.7842C81.4167 58.7842 81.4167 58.7842 81.4167 58.7747L83.8419 48.7895C83.8419 48.6379 83.8419 48.8084 83.8419 48.7326C83.8419 48.6474 83.8419 48.7895 83.8419 48.4958L81.9472 38.4821C81.9472 38.5011 81.9472 38.4726 81.9472 38.4821L84.7893 27.9189L77.2104 18H76.263L68.684 27.8811L71.4977 38.4821L69.6314 48.5905C69.6314 48.5905 69.6314 48.6284 69.6314 48.6474C69.6314 48.6758 69.6219 48.7137 69.6314 48.7421L71.7062 58.7463L69.7735 68.8263C69.7735 68.8263 69.7735 68.8453 69.7735 68.8547V68.8737C69.7735 68.8737 69.7735 68.8926 69.7735 68.9021C69.7735 68.9495 69.7546 68.9968 69.7735 69.0442L71.2704 79.1147L70.1904 84.2021L69.063 89.4884L69.6977 92.7663L70.7967 99.3884C70.7967 99.3884 70.7967 99.4168 70.7967 99.4263L68.5135 109.449C68.5135 109.449 68.5135 109.516 68.5135 109.544C68.5135 109.582 68.5041 109.611 68.5135 109.648L70.3135 117.474H67.5V119.5H64.4998V121.5H61.5V123.5H58.5V126H61.5L76.3483 121L91.5 126H94.5V123.5H91.5V121.5ZM76.4241 90.4358L80.7062 98.9811L72.0946 98.9432L76.4241 90.4358ZM76.5188 70.2L80.4314 78.6695L72.5588 78.6316L76.5188 70.2ZM80.9998 38.0653L72.4735 38.0368L76.6988 27.8811L80.9998 38.0653ZM76.7367 49.9926L80.1472 58.3674L72.9756 58.339L76.7367 49.9926ZM76.3483 110.643L81.1893 117.474L76.3483 116.5L71.4314 117.474L76.3483 110.643ZM77.163 109.108L81.3314 100.942L83.1314 109.127L77.1725 109.099L77.163 109.108ZM77.2198 88.8158L81.0188 80.7537L82.6672 88.8347L77.2198 88.8158ZM77.2672 68.5232L80.7346 60.5653L82.1935 68.5421L77.2672 68.5232ZM77.5498 48.2211L81.4735 40.4147L82.8946 48.24L77.5498 48.2211ZM71.9998 40.3863L75.8841 48.2211L70.5788 48.2021L71.9998 40.3863ZM72.3788 60.5368L75.7609 68.5137L70.8535 68.4947L72.3788 60.5368ZM71.943 80.7158L75.6662 88.8158L70.2188 88.7968L71.9335 80.7158H71.943ZM71.4598 100.942L75.543 109.118L69.6125 109.089L71.4693 100.942H71.4598Z"/></svg>