<svg xmlns="http://www.w3.org/2000/svg" width="109" height="112" fill="none" viewBox="0 0 109 112"><g clip-path="url(#clip0_52_54)"><path fill="#004098" d="M104.25 41.25V44.25H102.25V47.25H100.224V50.4144L92.6068 48.548C92.5405 48.5196 92.4647 48.4912 92.389 48.4912C92.2942 48.4912 92.2089 48.5196 92.1332 48.5575L82.2521 50.727C82.2237 50.727 82.1953 50.7365 82.1668 50.7459L75.5921 49.5996L72.3711 48.9838L67.0468 49.9975L62.0068 51.0302C62.0068 51.0302 61.9595 51.0112 61.9311 51.0112C61.9026 51.0112 61.8932 51.0302 61.8647 51.0396L51.8984 49.467C51.8984 49.467 51.8226 49.4386 51.7847 49.4386C51.7468 49.4386 51.7089 49.4575 51.6711 49.467C51.6616 49.467 51.6426 49.467 51.6332 49.4765C51.6047 49.4765 51.5763 49.4765 51.5479 49.4954L41.5342 51.3333C41.5342 51.3333 41.5342 51.3333 41.5247 51.3333L31.5395 48.9081C31.3879 48.9081 31.5584 48.9081 31.4826 48.9081C31.3974 48.9081 31.5395 48.9081 31.2458 48.9081L21.2321 50.8028C21.2511 50.8028 21.2226 50.8028 21.2321 50.8028L10.6689 47.9607L0.75 55.5396V56.487L10.6311 64.066L21.2321 61.2523L31.3405 63.1186C31.3405 63.1186 31.3784 63.1186 31.3974 63.1186C31.4258 63.1186 31.4637 63.1281 31.4921 63.1186L41.4963 61.0438L51.5763 62.9765C51.5763 62.9765 51.5953 62.9765 51.6047 62.9765H51.6237C51.6237 62.9765 51.6426 62.9765 51.6521 62.9765C51.6995 62.9765 51.7468 62.9954 51.7942 62.9765L61.8647 61.4796L72.2384 63.687L75.5163 63.0523L82.1384 61.9533C82.1384 61.9533 82.1668 61.9533 82.1763 61.9533L92.1995 64.2365C92.1995 64.2365 92.2658 64.2365 92.2942 64.2365C92.3321 64.2365 92.3605 64.2459 92.3984 64.2365L100.224 62.4365V65.25H102.25V68.2502H104.25V71.25H106.25V74.25H108.75V71.25L103.75 56.4017L108.75 41.25V38.25H106.25V41.25H104.25Z"/><path fill="#004098" d="M53.75 31.75C50.4857 37.3296 48.5073 41.8411 46.75 46.75H62.25C62.25 46.75 62.3925 43.9816 62.75 42.25C63.0374 40.8578 63.3408 39.6114 63.75 38.25C64.6387 35.2933 64.9755 34.062 66.25 31.25C67.66 28.1389 68.9245 26.137 70.75 23.25C72.6313 20.2748 73.1252 19.5566 75.25 16.75C77.5895 13.6598 78.2867 12.7424 80.75 9.75C82.9595 7.06591 87.75 1.75 87.75 1.75L85.75 0.25C85.75 0.25 83.9014 0.708076 82.25 1.75C80.5986 2.79192 78.25 4.49996 76.75 5.75C73.75 8.25 71.75 9.75 68.75 12.75C65.2982 16.2018 64.75 16.75 61.75 20.25C58.0386 24.5799 56.5126 27.028 53.75 31.75Z"/><path fill="#004098" d="M53.75 80.25C50.4857 74.6704 48.5073 70.1589 46.75 65.25H62.25C62.25 65.25 62.3925 68.0184 62.75 69.75C63.0374 71.1422 63.3408 72.3886 63.75 73.75C64.6387 76.7067 64.9755 77.938 66.25 80.75C67.66 83.8611 68.9245 85.863 70.75 88.75C72.6313 91.7252 73.1252 92.4434 75.25 95.25C77.5895 98.3402 78.2867 99.2576 80.75 102.25C82.9595 104.934 87.75 110.25 87.75 110.25L85.75 111.75C85.75 111.75 83.9014 111.292 82.25 110.25C80.5986 109.208 78.25 107.5 76.75 106.25C73.75 103.75 71.75 102.25 68.75 99.25C65.2982 95.7982 64.75 95.25 61.75 91.75C58.0386 87.4201 56.5126 84.972 53.75 80.25Z"/></g><defs><clipPath id="clip0_52_54"><rect width="109" height="112" fill="#fff"/></clipPath></defs></svg>