<?xml version="1.0" standalone="no"?>
<!DOCTYPE svg PUBLIC "-//W3C//DTD SVG 20010904//EN"
 "http://www.w3.org/TR/2001/REC-SVG-20010904/DTD/svg10.dtd">
<svg version="1.0" xmlns="http://www.w3.org/2000/svg"
 width="700.000000pt" height="700.000000pt" viewBox="0 0 700.000000 700.000000"
 preserveAspectRatio="xMidYMid meet">
<metadata>
Created by potrace 1.14, written by Peter Selinger 2001-2017
</metadata>
<g transform="translate(0.000000,700.000000) scale(0.100000,-0.100000)"
fill="#000000" stroke="none">
<path d="M3220 6994 c-182 -20 -243 -29 -360 -50 -786 -142 -1524 -572 -2041
-1189 -436 -522 -692 -1103 -796 -1810 -25 -173 -25 -717 0 -890 70 -477 202
-877 416 -1258 281 -503 667 -917 1146 -1229 449 -293 903 -461 1470 -545 152
-22 705 -26 855 -5 823 113 1504 445 2065 1007 493 492 830 1119 959 1783 55
283 61 346 61 692 0 346 -6 409 -61 692 -148 762 -575 1482 -1179 1989 -517
433 -1119 699 -1800 795 -114 15 -640 29 -735 18z m396 -907 c34 -45 112 -148
173 -228 l112 -146 -66 -242 -65 -243 44 -235 45 -235 -55 -223 c-29 -123 -54
-233 -54 -245 0 -12 19 -123 41 -247 l41 -224 -36 -231 -37 -232 47 -237 47
-238 -40 -229 -41 -229 52 -236 52 -235 -42 -174 c-24 -95 -43 -176 -44 -180
0 -5 31 -8 69 -8 l70 0 3 -47 3 -48 68 -3 67 -3 0 -44 0 -45 70 0 70 0 0 -45
0 -45 70 0 70 0 0 -55 0 -55 -67 0 c-60 0 -109 14 -415 116 l-348 116 -348
-116 c-295 -99 -356 -116 -410 -116 l-62 0 0 55 0 55 70 0 70 0 0 45 0 45 65
0 65 0 0 45 0 45 70 0 70 0 0 50 0 50 65 0 c36 0 65 2 65 4 0 2 -18 84 -41
182 l-40 179 53 234 52 234 -34 196 c-18 108 -35 219 -37 246 -2 33 14 126 45
270 l48 219 -35 237 -34 236 43 224 c23 123 42 235 42 249 -1 14 -22 122 -47
242 l-45 216 43 234 43 235 -64 244 -64 245 173 227 c126 164 180 227 194 226
13 0 41 -28 81 -82z m-546 -2382 l0 -355 -45 0 -45 0 0 355 0 355 45 0 45 0 0
-355z m968 3 l-3 -353 -42 -3 -43 -3 0 355 0 356 45 0 45 0 -2 -352z m-1138
-48 l0 -340 -45 0 -45 0 0 340 0 340 45 0 45 0 0 -340z m1310 0 l0 -340 -45 0
-45 0 0 340 0 340 45 0 45 0 0 -340z m-1490 -70 l0 -320 -40 0 -40 0 0 320 0
320 40 0 40 0 0 -320z m1660 0 l0 -320 -45 0 -45 0 0 320 0 320 45 0 45 0 0
-320z m-1830 -70 l0 -300 -45 0 -45 0 0 300 0 300 45 0 45 0 0 -300z m2000 0
l0 -300 -40 0 -40 0 0 300 0 300 40 0 40 0 0 -300z m-2170 -80 l0 -290 -45 0
-45 0 0 290 0 290 45 0 45 0 0 -290z m2350 0 l0 -290 -45 0 -45 0 0 290 0 290
45 0 45 0 0 -290z m-2520 -100 l0 -280 -45 0 -45 0 0 280 0 280 45 0 45 0 0
-280z m2690 0 l0 -280 -45 0 -45 0 0 280 0 280 45 0 45 0 0 -280z m-2870 -115
l0 -265 -40 0 -40 0 0 265 0 265 40 0 40 0 0 -265z m3040 0 l0 -265 -45 0 -45
0 0 265 0 265 45 0 45 0 0 -265z m-3210 -130 l0 -255 -45 0 -45 0 0 255 0 255
45 0 45 0 0 -255z m3380 0 l0 -255 -40 0 -40 0 0 255 0 255 40 0 40 0 0 -255z
m-3550 -150 l0 -235 -45 0 -45 0 0 235 0 235 45 0 45 0 0 -235z m3730 0 l0
-235 -45 0 -45 0 0 235 0 235 45 0 45 0 0 -235z m-3900 -160 l0 -215 -45 0
-45 0 0 215 0 215 45 0 45 0 0 -215z m4070 0 l0 -215 -45 0 -45 0 0 215 0 215
45 0 45 0 0 -215z m-4250 -170 l0 -185 -40 0 -40 0 0 185 0 185 40 0 40 0 0
-185z m4420 0 l0 -185 -45 0 -45 0 0 185 0 185 45 0 45 0 0 -185z m-4590 -195
l0 -160 -45 0 -45 0 0 160 0 160 45 0 45 0 0 -160z m4760 0 l0 -160 -40 0 -40
0 0 160 0 160 40 0 40 0 0 -160z m-4930 -175 l0 -105 -45 0 -45 0 0 105 0 105
45 0 45 0 0 -105z m5110 0 l0 -105 -45 0 -45 0 0 105 0 105 45 0 45 0 0 -105z"/>
<path d="M3521 5699 c-5 -13 -48 -116 -95 -229 -47 -113 -86 -211 -86 -217 0
-10 46 -13 195 -13 107 0 195 4 195 9 0 8 -189 462 -196 470 -2 2 -8 -7 -13
-20z"/>
<path d="M3310 5133 c0 -5 -14 -80 -30 -168 -16 -88 -30 -166 -30 -172 0 -10
32 -13 125 -13 l125 0 -90 180 c-82 164 -100 195 -100 173z"/>
<path d="M3662 4964 l-91 -181 67 -7 c95 -8 170 -7 176 3 5 7 -46 317 -58 356
-2 6 -44 -72 -94 -171z"/>
<path d="M3512 4658 c-11 -24 -49 -109 -86 -190 -36 -81 -66 -150 -66 -153 0
-3 74 -5 165 -5 91 0 165 4 165 8 0 9 -148 374 -154 380 -3 2 -13 -16 -24 -40z"/>
<path d="M3325 4188 c-8 -34 -65 -332 -65 -340 0 -5 52 -8 115 -8 63 0 115 3
115 7 0 10 -151 363 -156 363 -2 0 -6 -10 -9 -22z"/>
<path d="M3637 4033 c-43 -98 -77 -181 -77 -185 0 -5 52 -8 116 -8 115 0 116
0 111 23 -3 12 -18 90 -33 172 -14 83 -30 156 -33 163 -5 8 -39 -59 -84 -165z"/>
<path d="M3501 3729 c-10 -24 -51 -111 -90 -193 -39 -82 -71 -153 -71 -157 0
-5 81 -9 180 -9 143 0 180 3 180 13 0 12 -165 375 -175 386 -3 2 -13 -16 -24
-40z"/>
<path d="M3306 3269 c-10 -32 -75 -353 -72 -356 2 -2 59 -2 128 -1 l125 3 -82
178 c-45 98 -85 180 -88 184 -4 3 -9 0 -11 -8z"/>
<path d="M3639 3095 l-87 -184 125 -3 c69 -2 127 0 129 3 5 9 -69 369 -76 369
-3 0 -44 -83 -91 -185z"/>
<path d="M3416 2641 c-53 -105 -96 -192 -96 -195 0 -4 90 -6 200 -6 l200 0
-97 195 c-54 107 -101 195 -105 195 -4 0 -50 -85 -102 -189z"/>
<path d="M3286 2340 c-3 -8 -22 -87 -41 -175 -20 -88 -38 -168 -41 -177 -5
-17 6 -18 135 -18 78 0 141 3 140 8 0 4 -42 90 -94 192 -56 111 -95 179 -99
170z"/>
<path d="M3646 2164 c-53 -103 -96 -188 -96 -190 0 -2 63 -4 140 -4 77 0 140
3 140 8 0 15 -78 364 -83 368 -3 3 -48 -79 -101 -182z"/>
<path d="M3402 1753 c-62 -86 -110 -158 -108 -161 3 -2 55 6 117 18 l112 21
99 -21 c55 -12 104 -20 109 -18 7 2 -177 275 -210 310 -3 4 -57 -63 -119 -149z"/>
</g>
</svg>
