<?xml version="1.0" encoding="UTF-8"?>
<!-- Generated by Pixelmator Pro 3.5.5 -->
<svg width="2036" height="545" viewBox="0 0 2036 545" xmlns="http://www.w3.org/2000/svg">
    <path id="OpenSIST" fill="#80b3fa" fill-rule="evenodd" stroke="none" d="M 1926.432007 177.279999 L 1876.895996 179.007996 L 1866.81604 239.200012 L 1847.807983 239.200012 L 1852.703979 162.015991 L 2032.128052 162.015991 L 2035.583984 239.200012 L 2017.439941 239.200012 L 2007.936035 179.007996 L 1958.112061 177.279999 L 1958.112061 359.007996 L 1999.008057 361.888 L 1999.008057 376 L 1888.991943 376 L 1888.991943 361.888 L 1926.432007 359.007996 Z M 1755.359985 379.167999 C 1745.375977 379.167999 1736.447998 378.304016 1728.57605 376.575989 C 1720.703979 374.847992 1712.064087 372.544006 1702.656006 369.664001 C 1696.895996 367.552002 1692.57605 366.399994 1689.696045 366.208008 L 1692 314.080017 L 1710.432007 314.080017 L 1715.328003 351.52002 C 1718.592041 354.59201 1723.919922 357.328003 1731.312012 359.727997 C 1738.703979 362.127991 1746.815918 363.328003 1755.647949 363.328003 C 1770.240112 363.328003 1781.328003 360.064026 1788.911987 353.536011 C 1796.496094 347.007965 1800.287964 337.98407 1800.287964 326.463989 C 1800.287964 318.975952 1798.223999 312.544006 1794.095947 307.167999 C 1789.968018 301.791992 1784.496094 297.184021 1777.680054 293.343994 C 1770.864014 289.503967 1761.504028 284.992035 1749.599976 279.808014 C 1738.8479 275.007965 1729.488037 270.11203 1721.52002 265.119995 C 1713.552002 260.12796 1706.640015 253.456055 1700.784058 245.104004 C 1694.927979 236.751953 1692 226.720062 1692 215.007996 C 1692 204.447937 1694.832031 194.992035 1700.495972 186.640015 C 1706.160034 178.287964 1714.319946 171.712036 1724.975952 166.911987 C 1735.63208 162.111969 1748.063965 159.712006 1762.271973 159.712006 C 1771.104004 159.712006 1778.927979 160.384003 1785.744019 161.727997 C 1792.560059 163.072021 1800.287964 164.895996 1808.927979 167.200012 C 1812.768066 168.544006 1816.031982 169.40799 1818.719971 169.791992 L 1816.991943 218.175995 L 1799.42395 218.175995 L 1793.66394 182.752014 C 1791.744019 180.832001 1787.76001 179.007996 1781.712036 177.279999 C 1775.66394 175.552002 1769.088013 174.687988 1761.984009 174.687988 C 1748.735962 174.687988 1738.703979 177.471985 1731.887939 183.040009 C 1725.072021 188.608032 1721.66394 196.671936 1721.66394 207.231995 C 1721.66394 214.912048 1723.728027 221.343964 1727.855957 226.528015 C 1731.984009 231.712036 1737.119995 236.127991 1743.264038 239.776001 C 1749.408081 243.424011 1759.199951 248.415955 1772.640015 254.752014 C 1785.120117 260.704041 1795.296021 266.079987 1803.167969 270.880005 C 1811.040039 275.680023 1817.807983 281.967957 1823.472046 289.744019 C 1829.135986 297.52002 1831.968018 306.783936 1831.968018 317.536011 C 1831.968018 327.712036 1829.135986 337.503967 1823.472046 346.911987 C 1817.807983 356.320068 1809.168091 364.047974 1797.552002 370.096008 C 1785.935913 376.144043 1771.87207 379.167999 1755.359985 379.167999 Z M 1598.112061 179.872009 L 1571.328003 176.415985 L 1571.328003 162.015991 L 1656 162.015991 L 1656 176.415985 L 1629.215942 179.872009 L 1629.215942 359.007996 L 1656 362.175995 L 1656 376 L 1571.615967 376 L 1571.615967 361.888 L 1598.112061 359.007996 Z M 1468.223999 379.167999 C 1458.23999 379.167999 1449.312012 378.304016 1441.439941 376.575989 C 1433.567993 374.847992 1424.928101 372.544006 1415.52002 369.664001 C 1409.76001 367.552002 1405.440063 366.399994 1402.560059 366.208008 L 1404.864014 314.080017 L 1423.296021 314.080017 L 1428.192017 351.52002 C 1431.456055 354.59201 1436.783936 357.328003 1444.176025 359.727997 C 1451.567993 362.127991 1459.679932 363.328003 1468.511963 363.328003 C 1483.104126 363.328003 1494.192017 360.064026 1501.776001 353.536011 C 1509.359985 347.007965 1513.151978 337.98407 1513.151978 326.463989 C 1513.151978 318.975952 1511.088013 312.544006 1506.959961 307.167999 C 1502.832031 301.791992 1497.359985 297.184021 1490.543945 293.343994 C 1483.727905 289.503967 1474.368042 284.992035 1462.463989 279.808014 C 1451.711914 275.007965 1442.352051 270.11203 1434.384033 265.119995 C 1426.416016 260.12796 1419.504028 253.456055 1413.647949 245.104004 C 1407.791992 236.751953 1404.864014 226.720062 1404.864014 215.007996 C 1404.864014 204.447937 1407.695923 194.992035 1413.359985 186.640015 C 1419.024048 178.287964 1427.18396 171.712036 1437.839966 166.911987 C 1448.496094 162.111969 1460.927979 159.712006 1475.135986 159.712006 C 1483.968018 159.712006 1491.791992 160.384003 1498.608032 161.727997 C 1505.424072 163.072021 1513.151978 164.895996 1521.791992 167.200012 C 1525.63208 168.544006 1528.895996 169.40799 1531.583984 169.791992 L 1529.855957 218.175995 L 1512.287964 218.175995 L 1506.527954 182.752014 C 1504.608032 180.832001 1500.624023 179.007996 1494.57605 177.279999 C 1488.527954 175.552002 1481.952026 174.687988 1474.848022 174.687988 C 1461.599976 174.687988 1451.567993 177.471985 1444.751953 183.040009 C 1437.935913 188.608032 1434.527954 196.671936 1434.527954 207.231995 C 1434.527954 214.912048 1436.591919 221.343964 1440.719971 226.528015 C 1444.848022 231.712036 1449.984009 236.127991 1456.128052 239.776001 C 1462.271973 243.424011 1472.063965 248.415955 1485.504028 254.752014 C 1497.984009 260.704041 1508.159912 266.079987 1516.031982 270.880005 C 1523.904053 275.680023 1530.671997 281.967957 1536.33606 289.744019 C 1542 297.52002 1544.832031 306.783936 1544.832031 317.536011 C 1544.832031 327.712036 1542 337.503967 1536.33606 346.911987 C 1530.671997 356.320068 1522.032104 364.047974 1510.416016 370.096008 C 1498.799927 376.144043 1484.736084 379.167999 1468.223999 379.167999 Z M 1223.712036 238.335999 L 1202.975952 233.152008 L 1202.975952 217.600006 L 1244.160034 212.415985 L 1245.024048 212.415985 L 1251.072021 217.600006 L 1251.072021 229.696014 L 1250.784058 236.608002 C 1257.696045 230.463959 1266.815918 224.896027 1278.144043 219.903992 C 1289.472046 214.911987 1300.319946 212.415985 1310.687988 212.415985 C 1322.784058 212.415985 1332.143921 214.719971 1338.767944 219.328003 C 1345.39209 223.936035 1350.047974 230.991943 1352.735962 240.496002 C 1355.424072 250.000061 1356.767944 262.815918 1356.767944 278.944 L 1356.767944 359.583984 L 1376.927979 361.600006 L 1376.927979 376 L 1308.671997 376 L 1308.671997 361.888 L 1326.527954 359.583984 L 1326.527954 278.656006 C 1326.527954 267.327942 1325.76001 258.448029 1324.223999 252.015991 C 1322.687988 245.583954 1319.807983 240.784027 1315.583984 237.615997 C 1311.359985 234.447998 1305.216064 232.864014 1297.151978 232.864014 C 1290.23999 232.864014 1282.848022 234.59198 1274.975952 238.048004 C 1267.104004 241.504028 1260.096069 245.53598 1253.952026 250.144012 L 1253.952026 359.296021 L 1273.536011 361.888 L 1273.536011 376 L 1205.567993 376 L 1205.567993 361.888 L 1223.712036 359.296021 Z M 1120.608032 379.167999 C 1097.375854 379.167999 1079.664063 371.584076 1067.472046 356.416016 C 1055.279907 341.247925 1049.18396 320.992126 1049.18396 295.64801 C 1049.18396 278.943909 1052.351929 264.256073 1058.687988 251.584015 C 1065.024048 238.911926 1073.903931 229.120026 1085.328003 222.208008 C 1096.752075 215.295959 1109.759888 211.839996 1124.352051 211.839996 C 1142.20813 211.839996 1156.079956 216.783936 1165.968018 226.671997 C 1175.856079 236.560059 1181.088013 250.71991 1181.66394 269.152008 C 1181.66394 280.864044 1180.992065 289.791962 1179.647949 295.936005 L 1080.57605 295.936005 C 1080.959961 314.944092 1085.375977 330.25592 1093.823975 341.872009 C 1102.272095 353.488037 1114.271973 359.296021 1129.823975 359.296021 C 1137.504028 359.296021 1145.519897 357.903992 1153.871948 355.119995 C 1162.223999 352.335999 1168.703979 349.024017 1173.312012 345.184021 L 1178.784058 357.856018 C 1173.215942 363.616028 1164.960083 368.607971 1154.015991 372.832001 C 1143.071899 377.05603 1131.936035 379.167999 1120.608032 379.167999 Z M 1149.984009 280.671997 C 1150.560059 276.639984 1150.848022 272.512024 1150.848022 268.287994 C 1150.656006 255.807922 1148.015991 245.968048 1142.927979 238.768005 C 1137.839966 231.567963 1129.824097 227.967987 1118.880005 227.967987 C 1107.743896 227.967987 1098.864014 231.999969 1092.23999 240.063995 C 1085.615967 248.128052 1081.823975 261.66391 1080.864014 280.671997 Z M 1024.703979 290.463989 C 1024.703979 306.784088 1021.344055 321.711914 1014.624023 335.247986 C 1007.903992 348.784058 998.304077 359.487976 985.823975 367.359985 C 973.343933 375.232056 958.752075 379.167999 942.047974 379.167999 C 937.440002 379.167999 932.447998 378.783997 927.072021 378.015991 C 921.695984 377.247986 917.376038 376.288025 914.112 375.135986 L 914.976013 399.328003 L 914.976013 428.416016 L 944.927979 431.583984 L 944.927979 445.695984 L 864.575989 445.695984 L 864.575989 431.583984 L 885.312012 428.416016 L 885.312012 238.335999 L 864.288025 233.152008 L 864.288025 217.600006 L 905.184021 212.415985 L 905.76001 212.415985 L 911.807983 217.600006 L 911.807983 234.59201 C 917.568054 228.255981 924.719971 222.880035 933.263977 218.463989 C 941.808044 214.047974 951.359924 211.839996 961.919983 211.839996 C 973.248047 211.839996 983.66394 214.623962 993.16803 220.191986 C 1002.672058 225.76004 1010.303955 234.399933 1016.064026 246.112 C 1021.824036 257.824066 1024.703979 272.60791 1024.703979 290.463989 Z M 950.112 232 C 942.815979 232 936.000061 233.53598 929.664001 236.608002 C 923.327942 239.680023 918.432007 243.039978 914.976013 246.687988 L 914.976013 355.264008 C 916.320007 357.567993 919.727966 359.631989 925.200012 361.455994 C 930.671997 363.280029 936.671997 364.192017 943.200012 364.192017 C 957.98407 364.192017 969.935974 358.33606 979.05603 346.623993 C 988.176025 334.911926 992.736023 317.248108 992.736023 293.632019 C 992.736023 272.895905 988.752014 257.440063 980.783997 247.264008 C 972.815979 237.087952 962.592041 232 950.112 232 Z M 748.512024 379.167999 C 728.927917 379.167999 712.368042 374.656067 698.83197 365.632019 C 685.295959 356.607971 675.072021 343.888062 668.159973 327.471985 C 661.247986 311.055908 657.791992 292.000122 657.791992 270.303986 C 657.791992 248.223877 661.967957 228.832092 670.320007 212.127991 C 678.672058 195.42392 690.143921 182.512054 704.736023 173.391998 C 719.328064 164.271942 735.743896 159.712006 753.984009 159.712006 C 783.936157 159.712006 806.831909 169.167908 822.671997 188.079987 C 838.512085 206.992096 846.432007 233.151825 846.432007 266.559998 C 846.432007 289.024109 842.160034 308.751923 833.616028 325.744019 C 825.07196 342.736084 813.360046 355.887939 798.47998 365.200012 C 783.599915 374.512024 766.944092 379.167999 748.512024 379.167999 Z M 752.255981 174.687988 C 733.631897 174.687988 718.944031 182.799927 708.192017 199.023987 C 697.439941 215.248077 692.064026 239.007843 692.064026 270.303986 C 692.064026 299.104126 697.295959 321.903931 707.76001 338.703979 C 718.22406 355.504089 732.863892 363.903992 751.679993 363.903992 C 770.112122 363.903992 784.751953 355.552063 795.599976 338.848022 C 806.448059 322.143921 811.872009 298.144165 811.872009 266.847992 C 811.872009 237.855865 806.688049 215.248077 796.320007 199.023987 C 785.951965 182.799927 771.264099 174.687988 752.255981 174.687988 Z"/>
    <g id="dark">
        <path id="Path" fill="#80b3fa" stroke="none" d="M 545 272.5 C 545 422.997589 422.997589 545 272.5 545 C 122.002411 545 0 422.997589 0 272.5 C 0 122.002411 122.002411 0 272.5 0 C 422.997589 0 545 122.002411 545 272.5 Z"/>
        <path id="path1" fill="#ffffff" stroke="none" d="M 395.139343 272.855316 L 387.641998 272.855316 L 387.641998 315.034729 L 395.139343 315.034729 L 395.139343 272.855316 Z"/>
        <path id="path2" fill="#ffffff" stroke="none" d="M 381.682861 262.976135 L 374.181946 262.976135 L 374.181946 306.67511 L 381.682861 306.67511 L 381.682861 262.976135 Z"/>
        <path id="path3" fill="#ffffff" stroke="none" d="M 354.829437 247.015869 L 347.33136 247.015869 L 347.33136 294.704834 L 354.829437 294.704834 L 354.829437 247.015869 Z"/>
        <path id="path4" fill="#ffffff" stroke="none" d="M 368.255066 254.615753 L 360.757721 254.615753 L 360.757721 300.215027 L 368.255066 300.215027 L 368.255066 254.615753 Z"/>
        <path id="path5" fill="#ffffff" stroke="none" d="M 341.403412 240.176117 L 333.905365 240.176117 L 333.905365 290.335114 L 341.403412 290.335114 L 341.403412 240.176117 Z"/>
        <path id="path6" fill="#ffffff" stroke="none" d="M 327.94516 233.336365 L 320.447083 233.336365 L 320.447083 286.535522 L 327.94516 286.535522 L 327.94516 233.336365 Z"/>
        <path id="path7" fill="#ffffff" stroke="none" d="M 314.519135 228.428497 L 307.021088 228.428497 L 307.021088 284.115662 L 314.519135 284.115662 L 314.519135 228.428497 Z"/>
        <path id="path8" fill="#ffffff" stroke="none" d="M 408.567139 284.255524 L 401.066223 284.255524 L 401.066223 324.154907 L 408.567139 324.154907 L 408.567139 284.255524 Z"/>
        <path id="path9" fill="#ffffff" stroke="none" d="M 421.991364 296.795166 L 414.494019 296.795166 L 414.494019 334.034454 L 421.991364 334.034454 L 421.991364 296.795166 Z"/>
        <path id="path10" fill="#ffffff" stroke="none" d="M 435.419159 310.854736 L 427.918213 310.854736 L 427.918213 345.054199 L 435.419159 345.054199 L 435.419159 310.854736 Z"/>
        <path id="path11" fill="#ffffff" stroke="none" d="M 448.875641 326.434906 L 441.378296 326.434906 L 441.378296 356.454407 L 448.875641 356.454407 L 448.875641 326.434906 Z"/>
        <path id="path12" fill="#ffffff" stroke="none" d="M 462.303436 343.534302 L 454.802521 343.534302 L 454.802521 369.373749 L 462.303436 369.373749 L 462.303436 343.534302 Z"/>
        <path id="path13" fill="#ffffff" stroke="none" d="M 475.7276 361.919434 L 468.230316 361.919434 L 468.230316 379.0224 L 475.7276 379.0224 L 475.7276 361.919434 Z"/>
        <path id="path14" fill="#ffffff" stroke="none" d="M 151.15181 272.855316 L 158.649857 272.855316 L 158.649857 315.034729 L 151.15181 315.034729 L 151.15181 272.855316 Z"/>
        <path id="path15" fill="#ffffff" stroke="none" d="M 164.609726 262.976135 L 172.107773 262.976135 L 172.107773 306.67511 L 164.609726 306.67511 L 164.609726 262.976135 Z"/>
        <path id="path16" fill="#ffffff" stroke="none" d="M 191.461716 247.015869 L 198.959778 247.015869 L 198.959778 294.704834 L 191.461716 294.704834 L 191.461716 247.015869 Z"/>
        <path id="path17" fill="#ffffff" stroke="none" d="M 178.035721 254.615753 L 185.533783 254.615753 L 185.533783 300.215027 L 178.035721 300.215027 L 178.035721 254.615753 Z"/>
        <path id="path18" fill="#ffffff" stroke="none" d="M 204.888092 240.176117 L 212.386139 240.176117 L 212.386139 290.335114 L 204.888092 290.335114 L 204.888092 240.176117 Z"/>
        <path id="path19" fill="#ffffff" stroke="none" d="M 218.346008 233.336365 L 225.844055 233.336365 L 225.844055 286.535522 L 218.346008 286.535522 L 218.346008 233.336365 Z"/>
        <path id="path20" fill="#ffffff" stroke="none" d="M 231.772003 228.428497 L 239.270065 228.428497 L 239.270065 284.115662 L 231.772003 284.115662 L 231.772003 228.428497 Z"/>
        <path id="path21" fill="#ffffff" stroke="none" d="M 137.725433 284.255524 L 145.223495 284.255524 L 145.223495 324.154907 L 137.725433 324.154907 L 137.725433 284.255524 Z"/>
        <path id="path22" fill="#ffffff" stroke="none" d="M 124.299438 296.795166 L 131.797501 296.795166 L 131.797501 334.034454 L 124.299438 334.034454 L 124.299438 296.795166 Z"/>
        <path id="path23" fill="#ffffff" stroke="none" d="M 110.873436 310.854736 L 118.371483 310.854736 L 118.371483 345.054199 L 110.873436 345.054199 L 110.873436 310.854736 Z"/>
        <path id="path24" fill="#ffffff" stroke="none" d="M 97.41552 326.434906 L 104.913574 326.434906 L 104.913574 356.454407 L 97.41552 356.454407 L 97.41552 326.434906 Z"/>
        <path id="path25" fill="#ffffff" stroke="none" d="M 83.989159 343.534302 L 91.487213 343.534302 L 91.487213 369.373749 L 83.989159 369.373749 L 83.989159 343.534302 Z"/>
        <path id="path26" fill="#ffffff" stroke="none" d="M 70.563156 361.919434 L 78.061211 361.919434 L 78.061211 379.0224 L 70.563156 379.0224 L 70.563156 361.919434 Z"/>
        <path id="path27" fill="#ffffff" stroke="none" d="M 328.075653 435.641449 L 317.319092 435.641449 L 317.319092 428.470398 L 306.5625 428.470398 L 306.5625 421.206116 L 295.216461 421.206116 L 301.908508 393.895172 C 302.010315 393.658508 302.112122 393.385986 302.112122 393.113525 C 302.112122 392.772888 302.010315 392.46814 301.87442 392.195618 L 294.095642 356.767395 C 294.095642 356.665588 294.061554 356.563721 294.027863 356.461548 L 298.137939 332.887817 L 300.345917 321.338806 L 296.711273 302.248383 L 293.008514 284.177338 C 293.008514 284.177338 293.07663 284.007751 293.07663 283.905914 C 293.07663 283.803741 293.008514 283.77005 292.974792 283.667847 L 298.613373 247.933411 C 298.613373 247.933411 298.71521 247.661621 298.71521 247.525726 C 298.71521 247.389862 298.647461 247.253967 298.613373 247.118408 C 298.613373 247.084351 298.613373 247.016235 298.579315 246.982544 C 298.579315 246.880341 298.579315 246.778503 298.511566 246.676666 L 291.921722 210.772278 C 291.921722 210.772278 291.921722 210.772278 291.921722 210.738251 L 300.61734 174.936066 C 300.61734 174.392487 300.61734 175.003784 300.61734 174.732025 C 300.61734 174.426544 300.61734 174.936066 300.61734 173.882996 L 293.823822 137.978577 C 293.823822 138.046692 293.823822 137.944489 293.823822 137.978577 L 304.014252 100.103943 L 276.839935 64.539459 L 273.442993 64.539459 L 246.26828 99.968445 L 256.356903 137.978577 L 249.665222 174.222504 C 249.665222 174.222504 249.665222 174.358429 249.665222 174.426544 C 249.665222 174.528351 249.631165 174.664246 249.665222 174.766083 L 257.104462 210.636414 L 250.174713 246.778503 C 250.174713 246.778503 250.174713 246.846619 250.174713 246.880341 L 250.174713 246.948486 C 250.174713 246.948486 250.174713 247.016235 250.174713 247.050293 C 250.174713 247.220245 250.106949 247.389862 250.174713 247.559784 L 255.541901 283.667847 L 251.669525 301.908875 L 247.627213 320.863037 L 249.902939 332.615997 L 253.84343 356.359711 C 253.84343 356.359711 253.84343 356.461548 253.84343 356.495605 L 245.656952 392.432251 C 245.656952 392.432251 245.656952 392.672485 245.656952 392.772888 C 245.656952 392.909149 245.623245 393.013123 245.656952 393.145813 L 252.110901 421.206116 L 242.023026 421.206116 L 242.023026 428.470398 L 231.265732 428.470398 L 231.265732 435.641449 L 220.509872 435.641449 L 220.509872 442.8125 L 209.753296 442.8125 L 209.753296 451.776306 L 220.509872 451.776306 L 273.74884 433.848694 L 328.075653 451.776306 L 338.832245 451.776306 L 338.832245 442.8125 L 328.075653 442.8125 L 328.075653 435.641449 Z M 274.02063 324.259949 L 289.374207 354.899353 L 258.49707 354.763428 L 274.02063 324.259949 Z M 274.360168 251.703949 L 288.388885 282.071564 L 260.161499 281.935669 L 274.360168 251.703949 Z M 290.42691 136.484131 L 259.855652 136.381958 L 275.005554 99.968445 L 290.42691 136.484131 Z M 275.141479 179.249786 L 287.369904 209.277863 L 261.655945 209.176025 L 275.141479 179.249786 Z M 273.74884 396.713379 L 291.106384 421.206116 L 273.74884 417.713806 L 256.119141 421.206116 L 273.74884 396.713379 Z M 276.669983 391.209595 L 291.615875 361.930206 L 298.069824 391.27771 L 276.704041 391.177338 L 276.669983 391.209595 Z M 276.873627 318.451416 L 290.495026 289.544495 L 296.405426 318.519165 L 276.873627 318.451416 Z M 277.043579 245.691742 L 289.476013 217.158478 L 294.70694 245.759491 L 277.043579 245.691742 Z M 278.056824 172.89801 L 292.125397 144.90799 L 297.220764 172.96582 L 278.056824 172.89801 Z M 258.157196 144.806152 L 272.084442 172.89801 L 253.062134 172.829895 L 258.157196 144.806152 Z M 259.516083 217.056305 L 271.6427 245.657684 L 254.047089 245.589539 L 259.516083 217.056305 Z M 257.953522 289.40863 L 271.303162 318.451416 L 251.771362 318.38324 L 257.919464 289.40863 L 257.953522 289.40863 Z M 256.221008 361.930206 L 270.86142 391.245453 L 249.597458 391.141479 L 256.255066 361.930206 L 256.221008 361.930206 Z"/>
    </g>
</svg>
